<svg xmlns="http://www.w3.org/2000/svg" width="174" height="40.507" viewBox="0 0 174 40.507">
  <g id="Grupo_119" data-name="Grupo 119" transform="translate(-470 -4.66)">
    <g id="Grupo_118" data-name="Grupo 118" transform="translate(-361 44.66)">
      <g id="logoSimbolo" transform="translate(831 -40)">
        <path id="Caminho_210" data-name="Caminho 210" d="M131.313,12.553,123.884,8.08l-2.154,4.556,5.3,7.8Z" transform="translate(-103.821 -6.886)" fill="#22b573"/>
        <path id="Caminho_211" data-name="Caminho 211" d="M34.02,173.5l5.724,3.446,3.485-6.413L38.2,164.65Z" transform="translate(-28.994 -140.449)" fill="#22b573"/>
        <path id="Caminho_212" data-name="Caminho 212" d="M78.647,54,73.388,46.27,65.61,62.733l5.07,5.937Z" transform="translate(-55.964 -39.48)" fill="#22b573"/>
        <path id="Caminho_213" data-name="Caminho 213" d="M225.13,170.251l1.8,2.653.124-.068.114-6.176Z" transform="translate(-191.979 -142.127)" fill="#22b573"/>
        <path id="Caminho_214" data-name="Caminho 214" d="M207.08,197.75l-2.46,4.325,3.925-2.17Z" transform="translate(-174.499 -168.635)" fill="#22b573"/>
        <path id="Caminho_215" data-name="Caminho 215" d="M117.81,124.1l3.548-6.238L112.7,105.13l-7.9,14.547,6.738,7.89Z" transform="translate(-89.425 -89.721)" fill="#22b573"/>
        <path id="Caminho_216" data-name="Caminho 216" d="M8.472,103.6.3,94.03,0,110.287l4.136,2.491Z" transform="translate(0 -80.217)" fill="#22b573"/>
        <path id="Caminho_217" data-name="Caminho 217" d="M82.086,210.19,78.77,216.3l5.77,3.473,3.89-2.151Z" transform="translate(-67.181 -179.261)" fill="#22b573"/>
        <path id="Caminho_218" data-name="Caminho 218" d="M10.849,34.8l7.838-16.592-2.516-3.7L2.266,22.2,2.22,24.7Z" transform="translate(-1.892 -12.367)" fill="#22b573"/>
        <path id="Caminho_219" data-name="Caminho 219" d="M104.93,4.757l1.938-4.1L105.776,0,102.81,1.64Z" transform="translate(-87.674)" fill="#22b573"/>
        <path id="Caminho_220" data-name="Caminho 220" d="M162.05,50.287l8.67,12.752,2.73-4.8.222-11.978-7.109-4.28Z" transform="translate(-138.217 -35.817)" fill="#22b573"/>
      </g>
    </g>
    <text id="High_School_Dev" data-name="High School Dev" transform="translate(516 35)" fill="#22b573" font-size="27" font-family="Haettenschweiler"><tspan x="0" y="0">High School Dev</tspan></text>
  </g>
</svg>
