<svg id="Camada_1" data-name="Camada 1" xmlns="http://www.w3.org/2000/svg" viewBox="0 0 240.72 275.03"><defs><style>.cls-1{fill:#22b573;}</style></defs><title>logoSimbolo</title><polygon class="cls-1" points="186.6 38.36 136.31 8.08 121.73 38.92 157.62 91.7 186.6 38.36"/><polygon class="cls-1" points="34.02 224.57 72.77 247.9 96.36 204.49 62.33 164.65 34.02 224.57"/><polygon class="cls-1" points="153.86 98.62 118.26 46.27 65.61 157.71 99.93 197.9 153.86 98.62"/><polygon class="cls-1" points="225.13 190.97 237.34 208.93 238.18 208.47 238.95 166.66 225.13 190.97"/><polygon class="cls-1" points="221.27 197.75 204.62 227.03 231.19 212.34 221.27 197.75"/><polygon class="cls-1" points="192.87 233.53 216.89 191.3 158.29 105.13 104.8 203.6 150.41 257.01 192.87 233.53"/><polygon class="cls-1" points="57.35 158.81 2.03 94.03 0 204.08 28 220.94 57.35 158.81"/><polygon class="cls-1" points="101.22 210.19 78.77 251.52 117.83 275.03 144.16 260.47 101.22 210.19"/><polygon class="cls-1" points="60.63 151.87 113.69 39.55 96.66 14.51 2.53 66.56 2.22 83.48 60.63 151.87"/><polygon class="cls-1" points="117.16 32.2 130.28 4.45 122.89 0 102.81 11.1 117.16 32.2"/><polygon class="cls-1" points="162.05 98.21 220.74 184.53 239.22 152.03 240.72 70.95 192.6 41.98 162.05 98.21"/></svg>