<svg id="Camada_1" data-name="Camada 1" xmlns="http://www.w3.org/2000/svg" viewBox="0 0 362.8 373.24"><defs><style>.cls-1,.cls-2{fill:#22b573;}.cls-2{font-size:77.08px;font-family:Haettenschweiler;}</style></defs><title>logo01</title><polygon class="cls-1" points="245.9 38.36 195.61 8.08 181.03 38.92 216.92 91.7 245.9 38.36"/><polygon class="cls-1" points="93.33 224.57 132.07 247.9 155.66 204.49 121.64 164.65 93.33 224.57"/><polygon class="cls-1" points="213.16 98.62 177.56 46.27 124.91 157.71 159.24 197.9 213.16 98.62"/><polygon class="cls-1" points="284.43 190.97 296.64 208.93 297.49 208.47 298.26 166.66 284.43 190.97"/><polygon class="cls-1" points="280.57 197.75 263.92 227.03 290.49 212.34 280.57 197.75"/><polygon class="cls-1" points="252.17 233.53 276.19 191.3 217.59 105.13 164.1 203.6 209.72 257.01 252.17 233.53"/><polygon class="cls-1" points="116.65 158.81 61.33 94.03 59.3 204.08 87.3 220.94 116.65 158.81"/><polygon class="cls-1" points="160.53 210.19 138.08 251.52 177.13 275.03 203.46 260.47 160.53 210.19"/><polygon class="cls-1" points="119.93 151.87 173 39.55 155.97 14.51 61.83 66.56 61.52 83.48 119.93 151.87"/><polygon class="cls-1" points="176.47 32.2 189.58 4.45 182.19 0 162.12 11.1 176.47 32.2"/><polygon class="cls-1" points="221.35 98.21 280.04 184.53 298.52 152.03 300.02 70.95 251.9 41.98 221.35 98.21"/><text class="cls-2" transform="translate(0 347.76)">High School Dev</text></svg>